# xmcd
#
# Track frame offsets:
#	150
#	9309
#	29020
#	47915
#	76939
#	93099
#	103411
#	123462
#	138162
#	157349
#	175448
#
# Disc length: 2799 seconds
# Revision: 0
# Processed by: cddbd v1.5.2PL0 Copyright (c) Steve Scherf et al.
# Submitted via: dBpowerAMP V12.0
#
DISCID=910aed0b
DTITLE=Katy Guillen and the Girls - Katy Guillen and the Girls
DYEAR=2014
DGENRE=Blues
TTITLE0=Don't Get Better
TTITLE1=Old Best Friend
TTITLE2=Woke Up in Spain
TTITLE3=Stalling on Dreams
TTITLE4=Gabriela
TTITLE5=Think Twice
TTITLE6=Quiver
TTITLE7=If You Were Gone
TTITLE8=Don't Turn Your Back
TTITLE9=The Race
TTITLE10=Earth Angel
EXTD=
EXTT0=
EXTT1=
EXTT2=
EXTT3=
EXTT4=
EXTT5=
EXTT6=
EXTT7=
EXTT8=
EXTT9=
EXTT10=
PLAYORDER=
